<svg width="40" height="40" fill="none" version="1.1" viewBox="0 0 40 40" xmlns="http://www.w3.org/2000/svg">
 <path d="m20.828 0.017578c-9.2942-0.39639-17.89 5.7664-20.229 15.146-2.6723 10.704 3.8442 21.564 14.564 24.236 10.705 2.6723 21.566-3.8445 24.238-14.564 2.6724-10.72-3.8598-21.58-14.564-24.236-1.34-0.33404-2.682-0.5254-4.0098-0.58203zm-0.94531 7.3184 2.1875 0.54688-0.875 3.5312c0.5938 0.125 1.1875 0.26555 1.7656 0.40625l0.875-3.5156 2.1875 0.54688-0.90625 3.6094c2.7812 0.9531 4.7969 2.3906 4.4062 5.0469-0.2812 1.9375-1.3593 2.8907-2.8125 3.2188 1.9688 1.0313 2.9687 2.6094 2.0156 5.3281-1.1719 3.3907-3.9844 3.6718-7.7344 2.9688l-0.90625 3.6406-2.1875-0.54687 0.89062-3.5938c-0.5625-0.1406-1.1563-0.29692-1.75-0.45313l-0.90625 3.6094-2.1875-0.54688 0.90625-3.6406c-0.5157-0.1406-1.0313-0.26565-1.5625-0.40625l-2.8594-0.71875 1.0938-2.5156s1.6094 0.42193 1.5938 0.39063c0.6094 0.1563 0.8906-0.25003 1-0.51563l1.4375-5.75c0.078099 0.031301 0.15617 0.046901 0.23437 0.0625-0.0938-0.0469-0.17187-0.062525-0.23437-0.078124l1.0312-4.1094c0.0313-0.4687-0.12503-1.0625-1.0156-1.2812 0.0313-0.0157-1.5938-0.39062-1.5938-0.39062l0.57813-2.3438 3.0312 0.75v0.015624c0.4532 0.1094 0.92185 0.21883 1.4062 0.32813l0.89062-3.5938zm0.73438 6.6563-1.0938 4.375c1.2344 0.3125 5.0469 1.5781 5.6719-0.90625 0.6406-2.5781-3.3437-3.1562-4.5781-3.4688zm-1.6562 6.5938-1.2031 4.8281c1.4844 0.375 6.0781 1.8438 6.75-0.875 0.7188-2.8437-4.0625-3.5781-5.5469-3.9531z" style="fill:#ffffff"/>
</svg>
