<svg width="48" height="16" fill="none" version="1.1" viewBox="0 0 48 16" xmlns="http://www.w3.org/2000/svg">
 <path d="m34.893 0.65514c-1.1155-0.44212-2.2946-0.66398-3.4819-0.65513-3.8394 0-6.551 2.1037-6.5702 5.1236-0.024 2.2186 1.9269 3.4688 3.4027 4.21 1.5142 0.76217 2.0205 1.2424 2.0157 1.9237-0.0096 1.0362-1.2094 1.506-2.3253 1.506-1.5333 0-2.3708-0.2323-3.6594-0.8144l-0.4775-0.2427-0.5447 3.4766c0.9334 0.4228 2.6156 0.7856 4.3529 0.817 4.0818 0 6.7502-2.0907 6.7814-5.3037 0.0336-1.7722-1.0223-3.1112-3.2443-4.2179-1.351-0.71777-2.1885-1.198-2.1885-1.9262 0-0.64469 0.7175-1.3338 2.2173-1.3338 0.9981-0.02627 1.9901 0.17743 2.9107 0.59771l0.36 0.17487 0.5447-3.3592-0.0936 0.02349zm9.9633-0.37324h-2.9995c-0.9335 0-1.6366 0.27928-2.0445 1.2868l-5.7688 14.214h4.0818l0.8159-2.3308 4.9817 0.0052c0.1175 0.5455 0.4775 2.3256 0.4775 2.3256h3.5994l-3.1435-15.501zm-25.537-0.1305h3.8899l-2.4333 15.509h-3.885l2.4284-15.514v0.00522zm-9.8745 8.548 0.40314 2.1533 3.801-10.571h4.1202l-6.1215 15.48h-4.1106l-3.3595-13.108c-0.05441-0.21613-0.18219-0.40176-0.35754-0.5194-1.2109-0.68035-2.4938-1.1966-3.8202-1.5373l0.052792-0.32626h6.2607c0.84947 0.036541 1.5334 0.32626 1.7613 1.3129l1.3678 7.1229v-0.00783h0.0024zm30.612 1.5817 1.5502-4.338c-0.0192 0.04699 0.3192-0.89525 0.5159-1.4773l0.2664 1.339 0.8998 4.4737h-3.2347v0.0026h0.0024z" fill="#E0E0E0" style="fill:#ffffff"/>
</svg>
